PathFileType	3	(X/Y/Z)	squats_2__fused_aligned.trc
DataRate	CameraRate	NumFrames	NumMarkers	Units	OrigDataRate	OrigDataStartFrame	OrigNumFrames
100.0	100.0	10	19	mm	100.0	1096	1520
Frame#	Time	pelvis			neck			head			hip_left			hip_right			knee_left			knee_right			ankle_left			ankle_right			heel_left			heel_right			toe_left			toe_right			shoulder_left			shoulder_right			elbow_left			elbow_right			wrist_left			wrist_right			
		X1	Y1	Z1	X2	Y2	Z2	X3	Y3	Z3	X4	Y4	Z4	X5	Y5	Z5	X6	Y6	Z6	X7	Y7	Z7	X8	Y8	Z8	X9	Y9	Z9	X10	Y10	Z10	X11	Y11	Z11	X12	Y12	Z12	X13	Y13	Z13	X14	Y14	Z14	X15	Y15	Z15	X16	Y16	Z16	X17	Y17	Z17	X18	Y18	Z18	X19	Y19	Z19	
1096	10.95000	70.024369	962.082083	-17.361656	50.923413	1543.502499	-51.164580	35.698056	1697.133988	-141.684853	-6.015531	960.917749	-13.819043	146.064513	963.246405	-20.904251	-51.094650	538.404556	7.502582	176.279081	539.318321	-12.310579	-78.275769	155.075406	115.559493	192.456665	150.789209	75.993040	-75.087683	111.686970	154.718220	188.255871	108.037615	115.750168	-95.904045	82.357008	-63.997734	211.731524	67.111136	-100.226825	-118.653496	1480.677446	-12.747758	228.565471	1492.526837	-30.003095	-227.095487	1215.528122	-37.691867	340.514942	1235.637495	-69.215410	-237.960180	1121.658745	-286.032568	320.166183	1132.165390	-305.125071
1097	10.96000	69.785143	962.107530	-17.190396	51.136658	1543.463048	-51.150486	35.939587	1697.154322	-141.751030	-6.262036	960.973442	-13.594498	145.832575	963.241609	-20.786286	-51.495565	538.407726	7.730685	176.095138	539.240360	-12.162400	-78.766717	154.970874	115.832103	192.368277	150.602869	76.206556	-75.576228	111.561961	154.976866	188.202600	107.837858	115.965889	-96.516440	82.276741	-63.703543	211.572771	66.947957	-100.048601	-118.636136	1480.968229	-12.790157	228.887917	1492.156505	-30.301785	-226.988417	1215.659159	-38.185101	339.696817	1234.518374	-69.751825	-234.422740	1124.287913	-285.932766	317.461787	1132.109343	-306.048833
1098	10.97000	69.545918	962.132977	-17.019137	51.349902	1543.423598	-51.136392	36.181118	1697.174657	-141.817206	-6.508541	961.029134	-13.369953	145.600637	963.236814	-20.668320	-51.896480	538.410897	7.958789	175.911195	539.162399	-12.014221	-79.257664	154.866343	116.104712	192.279889	150.416529	76.420071	-76.064773	111.436952	155.235511	188.149330	107.638102	116.181610	-97.128836	82.196475	-63.409351	211.414019	66.784777	-99.870378	-118.618777	1481.259012	-12.832555	229.210364	1491.786172	-30.600475	-226.881348	1215.790197	-38.678335	338.878693	1233.399253	-70.288240	-230.885300	1126.917082	-285.832964	314.757392	1132.053295	-306.972594
1099	10.98000	69.306692	962.158424	-16.847877	51.563147	1543.384147	-51.122298	36.422649	1697.194991	-141.883383	-6.755046	961.084827	-13.145408	145.368699	963.232018	-20.550355	-52.297396	538.414067	8.186892	175.727251	539.084438	-11.866042	-79.748611	154.761811	116.377322	192.191501	150.230189	76.633586	-76.553318	111.311943	155.494157	188.096059	107.438345	116.397331	-97.741231	82.116208	-63.115159	211.255267	66.621598	-99.692154	-118.601417	1481.549795	-12.874954	229.532810	1491.415839	-30.899165	-226.774279	1215.921234	-39.171569	338.060569	1232.280131	-70.824654	-227.347859	1129.546250	-285.733161	312.052997	1131.997248	-307.896356
1100	10.99000	69.067466	962.183871	-16.676617	51.776391	1543.344696	-51.108203	36.664181	1697.215326	-141.949559	-7.001551	961.140520	-12.920863	145.136760	963.227222	-20.432389	-52.698311	538.417238	8.414996	175.543308	539.006477	-11.717864	-80.239558	154.657279	116.649932	192.103113	150.043849	76.847101	-77.041864	111.186934	155.752802	188.042788	107.238589	116.613052	-98.353627	82.035942	-62.820967	211.096515	66.458418	-99.513930	-118.584058	1481.840578	-12.917353	229.855256	1491.045507	-31.197855	-226.667209	1216.052271	-39.664803	337.242444	1231.161010	-71.361069	-223.810419	1132.175418	-285.633359	309.348601	1131.941201	-308.820117
1101	11.00000	68.828240	962.209318	-16.505358	51.989636	1543.305245	-51.094109	36.905712	1697.235660	-142.015735	-7.248055	961.196213	-12.696318	144.904822	963.222427	-20.314424	-53.099227	538.420408	8.643100	175.359364	538.928516	-11.569685	-80.730506	154.552747	116.922541	192.014725	149.857509	77.060616	-77.530409	111.061924	156.011448	187.989517	107.038832	116.828772	-98.966023	81.955675	-62.526776	210.937763	66.295239	-99.335706	-118.566698	1482.131361	-12.959752	230.177702	1490.675174	-31.496545	-226.560140	1216.183308	-40.158037	336.424320	1230.041889	-71.897484	-220.272979	1134.804586	-285.533556	306.644206	1131.885154	-309.743879
1102	11.01000	68.589015	962.234766	-16.334098	52.202880	1543.265794	-51.080015	37.147243	1697.255994	-142.081912	-7.494560	961.251906	-12.471772	144.672884	963.217631	-20.196458	-53.500142	538.423579	8.871203	175.175421	538.850555	-11.421506	-81.221453	154.448216	117.195151	191.926338	149.671169	77.274131	-78.018954	110.936915	156.270093	187.936246	106.839076	117.044493	-99.578418	81.875408	-62.232584	210.779011	66.132060	-99.157483	-118.549339	1482.422145	-13.002150	230.500148	1490.304842	-31.795236	-226.453071	1216.314345	-40.651271	335.606195	1228.922768	-72.433898	-216.735539	1137.433754	-285.433754	303.939811	1131.829107	-310.667640
1103	11.02000	68.349789	962.260213	-16.162838	52.416124	1543.226343	-51.065921	37.388774	1697.276329	-142.148088	-7.741065	961.307599	-12.247227	144.440946	963.212835	-20.078493	-53.901058	538.426749	9.099307	174.991477	538.772594	-11.273327	-81.712400	154.343684	117.467760	191.837950	149.484829	77.487646	-78.507499	110.811906	156.528739	187.882975	106.639320	117.260214	-100.190814	81.795142	-61.938392	210.620259	65.968880	-98.979259	-118.531980	1482.712928	-13.044549	230.822594	1489.934509	-32.093926	-226.346001	1216.445382	-41.144505	334.788071	1227.803646	-72.970313	-213.198099	1140.062922	-285.333951	301.235415	1131.773060	-311.591402
1104	11.03000	68.110563	962.285660	-15.991579	52.629369	1543.186892	-51.051827	37.630305	1697.296663	-142.214265	-7.987570	961.363292	-12.022682	144.209007	963.208039	-19.960527	-54.301973	538.429920	9.327410	174.807534	538.694633	-11.125148	-82.203347	154.239152	117.740370	191.749562	149.298489	77.701161	-78.996044	110.686897	156.787384	187.829704	106.439563	117.475935	-100.803209	81.714875	-61.644200	210.461506	65.805701	-98.801035	-118.514620	1483.003711	-13.086948	231.145040	1489.564176	-32.392616	-226.238932	1216.576419	-41.637739	333.969947	1226.684525	-73.506728	-209.660659	1142.692090	-285.234149	298.531020	1131.717013	-312.515163
1105	11.04000	67.871337	962.311107	-15.820319	52.842613	1543.147441	-51.037733	37.871836	1697.316998	-142.280441	-8.234075	961.418985	-11.798137	143.977069	963.203244	-19.842561	-54.702889	538.433091	9.555514	174.623590	538.616672	-10.976970	-82.694295	154.134621	118.012980	191.661174	149.112149	77.914676	-79.484589	110.561888	157.046030	187.776434	106.239807	117.691656	-101.415605	81.634609	-61.350008	210.302754	65.642521	-98.622812	-118.497261	1483.294494	-13.129347	231.467486	1489.193844	-32.691306	-226.131862	1216.707456	-42.130973	333.151822	1225.565404	-74.043142	-206.123219	1145.321259	-285.134347	295.826625	1131.660965	-313.438925
